<svg xmlns="http://www.w3.org/2000/svg" viewBox="0 0 400 400" width="400" height="400">
  <rect width="400" height="400" rx="40" fill="#020617"/>
  
  <circle cx="200" cy="200" r="120" fill="none" stroke="#1e293b" stroke-width="2" stroke-dasharray="8 4" opacity="0.6"/>
  <circle cx="200" cy="200" r="80" fill="none" stroke="#334155" stroke-width="1" stroke-dasharray="4 4" opacity="0.4"/>
  
  <path d="M200 130 L130 220 M200 130 L270 220 M130 220 L270 220 M200 130 L200 220" stroke="#38bdf8" stroke-width="3" opacity="0.7" stroke-linejoin="round"/>
  
  <path d="M140 145 C 170 130, 200 150, 200 150 C 200 150, 230 130, 260 145 L260 185 C 230 170, 200 190, 200 190 C 200 190, 170 170, 140 185 Z" fill="#0ea5e9" opacity="0.25"/>
  
  <circle cx="200" cy="130" r="14" fill="#0ea5e9" stroke="#020617" stroke-width="3"/>
  <circle cx="200" cy="130" r="6" fill="#ffffff"/>
  
  <circle cx="130" cy="220" r="14" fill="#38bdf8" stroke="#020617" stroke-width="3"/>
  <circle cx="130" cy="220" r="5" fill="#020617"/>
  
  <circle cx="270" cy="220" r="14" fill="#06b6d4" stroke="#020617" stroke-width="3"/>
  <circle cx="270" cy="220" r="5" fill="#020617"/>
  
  <circle cx="200" cy="205" r="22" fill="none" stroke="#f43f5e" stroke-width="4" stroke-dasharray="60 20"/>
  <circle cx="200" cy="205" r="4" fill="#f43f5e"/>

  <text x="200" y="310" font-family="Segoe UI, Inter, sans-serif" font-weight="800" font-size="20" fill="#ffffff" text-anchor="middle" letter-spacing="4">NOVELENTITY</text>
  <text x="200" y="335" font-family="Segoe UI, Inter, sans-serif" font-weight="600" font-size="12" fill="#94a3b8" text-anchor="middle" letter-spacing="6">VISUALIZER</text>
</svg>
